<svg xmlns="http://www.w3.org/2000/svg" viewBox="0 0 24 24" fill="#0f172a">
  <path fill-rule="evenodd" d="M12 2C6.477 2 2 6.486 2 12.021c0 4.428 2.865 8.186 6.839 9.504.5.093.682-.218.682-.485 0-.241-.009-.876-.014-1.72-2.782.605-3.369-1.343-3.369-1.343-.454-1.156-1.11-1.465-1.11-1.465-.908-.62.069-.607.069-.607 1.003.071 1.531 1.033 1.531 1.033.892 1.529 2.341 1.087 2.91.832.091-.647.35-1.087.636-1.338-2.22-.253-4.555-1.113-4.555-4.953 0-1.094.39-1.99 1.029-2.689-.103-.253-.446-1.27.098-2.646 0 0 .84-.27 2.75 1.027A9.564 9.564 0 0 1 12 6.844c.85.004 1.705.116 2.504.34 1.909-1.297 2.748-1.027 2.748-1.027.545 1.376.202 2.393.099 2.646.64.699 1.028 1.595 1.028 2.689 0 3.849-2.338 4.697-4.566 4.947.359.31.679.92.679 1.855 0 1.338-.012 2.418-.012 2.748 0 .269.18.582.688.483C19.139 20.204 22 16.448 22 12.02 22 6.486 17.523 2 12 2z" clip-rule="evenodd"/>
</svg>

